# Blender 4.5.1 LTS
# www.blender.org
mtllib Bus.mtl
o Cube
v -3.948616 -1.000000 0.983207
v -3.743858 1.000000 0.984626
v -3.948616 -1.000000 -0.983038
v -3.743858 1.000000 -0.984538
v 3.802690 -1.000000 0.983207
v 3.817274 1.000000 0.984626
v 3.802690 -1.000000 -0.983038
v 3.817274 1.000000 -0.984538
v -3.562781 -1.000000 -0.983038
v -3.613902 1.000000 -0.796853
v -3.562781 -1.000000 0.983207
v -3.613902 1.000000 0.796853
v 0.026209 1.000000 -0.796853
v 0.021025 -1.000000 0.983207
v 0.021025 -1.000000 -0.983038
v 0.026209 1.000000 0.796853
v 0.029994 1.000000 0.984626
v -3.559133 1.000000 0.984626
v -3.559133 1.000000 -0.984538
v 0.029994 1.000000 -0.984538
v -0.237857 1.254679 0.796853
v -3.613902 1.130437 0.796853
v -3.613902 1.130437 -0.796853
v -0.237857 1.254679 -0.796853
v -3.134119 -1.000000 -0.983038
v -3.129834 1.000000 0.984626
v -3.129834 1.000000 -0.984538
v -3.134119 -1.000000 0.983207
v -3.188082 1.000000 0.796853
v -3.188082 1.000000 -0.796853
v -3.188082 1.254679 0.796853
v -3.188082 1.254679 -0.796853
v -4.048544 -1.000000 -0.786413
v -3.843934 1.000000 -0.787621
v 4.002490 -1.000000 -0.786413
v 4.017370 1.000000 -0.787621
v -3.686991 1.000000 -0.800000
v -3.647790 -1.000000 -0.786413
v 0.099298 1.000000 -0.800000
v 0.074595 -1.000000 -0.786413
v -3.613902 1.000000 -0.637482
v 0.026209 1.000000 -0.637482
v -3.613902 1.130437 -0.637482
v -0.237857 1.254679 -0.637482
v -3.188082 1.254679 -0.637482
v -3.202553 -1.000000 -0.786413
v -4.048544 -1.000000 0.806245
v 4.017370 1.000000 0.807401
v -3.686991 1.000000 0.820000
v -3.647790 -1.000000 0.806245
v 0.099298 1.000000 0.820000
v 0.074595 -1.000000 0.806245
v -3.613902 1.000000 0.653419
v 0.026209 1.000000 0.653419
v -3.613902 1.130437 0.653419
v -0.237857 1.254679 0.653419
v -3.188082 1.254679 0.653419
v -3.202553 -1.000000 0.806245
v -3.843934 1.000000 0.807401
v 4.002490 -1.000000 0.806245
v -3.962532 -0.702704 1.000000
v -3.962532 -0.702704 -1.000000
v 3.891395 -0.702704 -1.000000
v 3.891395 -0.702704 1.000000
v -3.600523 -0.702704 1.000000
v -3.600523 -0.702704 -1.000000
v 0.044808 -0.702704 1.000000
v 0.044808 -0.702704 -1.000000
v -3.164501 -0.702704 -1.000000
v -3.164501 -0.702704 1.000000
v 4.094625 -0.702704 -0.800000
v -4.064176 -0.702704 -0.800000
v -4.064176 -0.702704 0.820000
v 4.094625 -0.702704 0.820000
v -3.800257 0.881695 1.000000
v -3.800257 0.881695 -1.000000
v 3.891395 0.881695 -1.000000
v 3.891395 0.881695 1.000000
v -3.600523 0.881695 1.000000
v -3.600523 0.881695 -1.000000
v 0.044808 0.881695 1.000000
v 0.044808 0.881695 -1.000000
v -3.164501 0.881695 -1.000000
v -3.164501 0.881695 1.000000
v 4.094625 0.881695 -0.800000
v -3.901901 0.881695 -0.800000
v -3.901901 0.881695 0.820000
v 4.094625 0.881695 0.820000
v 1.741732 -1.000000 0.806245
v 2.640633 -1.000000 0.806245
v 2.640633 -1.000000 0.983207
v 1.741732 -1.000000 0.983207
v 1.741732 -1.000000 -0.983038
v 2.640633 -1.000000 -0.983038
v 2.640633 -1.000000 -0.786413
v 1.741732 -1.000000 -0.786413
v 1.706445 -0.705450 0.999845
v 1.707768 -0.702704 1.000000
v 2.675920 -0.705450 0.999845
v 2.674597 -0.702704 1.000000
v 1.706445 -0.926727 0.987346
v 2.675920 -0.926727 0.987346
v 1.706445 -0.705450 -0.999843
v 1.707768 -0.702704 -1.000000
v 2.675920 -0.705450 -0.999843
v 2.674597 -0.702704 -1.000000
v 1.706445 -0.926727 -0.987218
v 2.675920 -0.926727 -0.987218
v 1.802454 -0.506087 1.000000
v 1.975454 -0.368124 1.000000
v 2.579912 -0.506087 1.000000
v 2.406911 -0.368124 1.000000
v 2.191183 -0.318885 1.000000
v 1.802454 -0.506087 -1.000000
v 1.975454 -0.368124 -1.000000
v 2.579912 -0.506087 -1.000000
v 2.406911 -0.368124 -1.000000
v 2.191183 -0.318885 -1.000000
v -2.931675 -1.000000 0.806245
v -2.032774 -1.000000 0.806245
v -2.032774 -1.000000 0.983207
v -2.931675 -1.000000 0.983207
v -2.931675 -1.000000 -0.983038
v -2.032774 -1.000000 -0.983038
v -2.032774 -1.000000 -0.786413
v -2.931675 -1.000000 -0.786413
v -2.965639 -0.702704 1.000000
v -2.966962 -0.705450 0.999845
v -1.997487 -0.705450 0.999845
v -1.998810 -0.702704 1.000000
v -2.966962 -0.926727 0.987346
v -1.997487 -0.926727 0.987346
v -2.966962 -0.926727 -0.987218
v -2.966962 -0.705450 -0.999843
v -2.965639 -0.702704 -1.000000
v -1.997487 -0.705450 -0.999843
v -1.998810 -0.702704 -1.000000
v -1.997487 -0.926727 -0.987218
v -2.870953 -0.506087 1.000000
v -2.697953 -0.368124 1.000000
v -2.093495 -0.506087 1.000000
v -2.266496 -0.368124 1.000000
v -2.482224 -0.318885 1.000000
v -2.870953 -0.506087 -1.000000
v -2.697953 -0.368124 -1.000000
v -2.482224 -0.318885 -1.000000
v -2.093495 -0.506087 -1.000000
v -2.266496 -0.368124 -1.000000
vn -0.8024 0.4358 -0.4078
vn -0.0000 0.1296 -0.9916
vn 0.5900 0.4562 0.6661
vn -0.0000 0.1289 0.9917
vn -0.0000 -1.0000 -0.0000
vn -0.0000 1.0000 -0.0000
vn -0.0000 -0.0000 1.0000
vn -0.2801 0.9600 -0.0000
vn 0.6942 0.7198 -0.0000
vn -1.0000 -0.0000 -0.0000
vn -0.0000 -0.0000 -1.0000
vn 0.6191 0.4701 -0.6291
vn -0.8980 0.4400 -0.0000
vn -0.7853 0.4320 0.4435
vn 0.8373 0.5468 -0.0000
vn 0.9552 -0.2960 -0.0000
vn -0.8687 -0.0684 0.4906
vn -0.9986 -0.0525 -0.0000
vn 0.6805 -0.2425 -0.6915
vn -0.0000 -0.0564 0.9984
vn -0.0000 -0.0570 -0.9984
vn 0.6447 -0.2335 0.7279
vn -0.8894 -0.0674 -0.4520
vn 1.0000 -0.0000 -0.0000
vn -0.8673 0.0888 0.4898
vn -0.9948 0.1019 -0.0000
vn 0.7014 -0.0000 -0.7127
vn 0.6630 -0.0000 0.7486
vn -0.8878 0.0909 -0.4512
vn -0.2225 -0.9749 -0.0000
vn -0.6235 -0.7818 -0.0000
vn -0.9010 -0.4339 -0.0000
vn -0.9010 0.4339 -0.0000
vn 0.9010 0.4339 -0.0000
vn 0.9010 -0.4339 -0.0000
vn 0.6235 -0.7818 -0.0000
vn 0.2225 -0.9749 -0.0000
vt 0.418821 0.194222
vt 0.431571 0.192883
vt 0.431547 0.214124
vt 0.418796 0.215796
vt 0.528367 0.444387
vt 0.527977 0.431604
vt 0.627776 0.431604
vt 0.629729 0.444387
vt 0.196353 0.012919
vt 0.195000 0.000113
vt 0.214142 0.000000
vt 0.215795 0.012804
vt 0.413229 0.444386
vt 0.412139 0.431604
vt 0.417006 0.431604
vt 0.418493 0.444386
vt 0.811708 0.000000
vt 0.842330 0.000000
vt 0.842330 0.019094
vt 0.806443 0.019094
vt 0.809618 0.647400
vt 0.808207 0.666494
vt 0.764276 0.666494
vt 0.764276 0.647400
vt 0.004136 0.449410
vt 0.000000 0.450770
vt 0.002637 0.431648
vt 0.007505 0.431648
vt 0.899435 0.486663
vt 0.899435 0.571364
vt 0.871957 0.564405
vt 0.871957 0.486663
vt 0.193917 0.663211
vt 0.183357 0.663211
vt 0.181117 0.644117
vt 0.191284 0.644117
vt 0.401740 0.444386
vt 0.400826 0.431604
vt 0.427045 0.444387
vt 0.428531 0.431604
vt 0.433399 0.431604
vt 0.432308 0.444387
vt 0.215809 0.444386
vt 0.217762 0.431604
vt 0.317561 0.431604
vt 0.317171 0.444386
vt 0.207155 0.450770
vt 0.103909 0.449410
vt 0.102083 0.431648
vt 0.201882 0.431648
vt 0.863738 0.666494
vt 0.863738 0.647400
vt 0.169821 0.644117
vt 0.171624 0.663211
vt 0.164486 0.663211
vt 0.164486 0.644117
vt 0.443798 0.444387
vt 0.444711 0.431604
vt 0.017282 0.451908
vt 0.006062 0.451908
vt 0.018817 0.431648
vt 0.006062 0.606670
vt 0.006062 0.623866
vt 0.007505 0.644117
vt 0.004136 0.624205
vt 0.017282 0.623866
vt 0.101983 0.623866
vt 0.102083 0.644117
vt 0.018817 0.644117
vt 0.101983 0.467384
vt 0.101983 0.451908
vt 0.897328 0.015476
vt 0.884025 0.015499
vt 0.884025 0.000023
vt 0.897328 -0.000000
vt 0.842330 0.017196
vt 0.842330 0.000000
vt 0.869952 0.000024
vt 0.869952 0.017220
vt 0.869952 0.015499
vt 0.869952 0.000023
vt 0.924806 0.084700
vt 0.924806 0.095921
vt 0.910733 0.095921
vt 0.897328 0.084700
vt 0.924806 -0.000000
vt 0.897328 0.006958
vt 0.871957 0.490919
vt 0.794215 0.490919
vt 0.794215 0.475442
vt 0.871957 0.475442
vt 0.899435 0.475442
vt 0.885362 0.475442
vt 0.181117 0.856271
vt 0.169821 0.856271
vt 0.171624 0.835055
vt 0.183357 0.835055
vt 0.871957 0.647400
vt 0.794215 0.647400
vt 0.794215 0.630204
vt 0.871957 0.630204
vt 0.869952 0.171981
vt 0.869952 0.154785
vt 0.884025 0.154785
vt 0.884025 0.171980
vt 0.842330 0.156480
vt 0.869952 0.156505
vt 0.897328 0.171957
vt 0.897328 0.154762
vt 0.101983 0.606670
vt 0.103909 0.624205
vt 0.006062 0.467384
vt 0.863738 0.859554
vt 0.809618 0.859554
vt 0.808207 0.838339
vt 0.863738 0.838339
vt 0.164486 0.856271
vt 0.164486 0.835055
vt 0.201882 0.644117
vt 0.207155 0.622870
vt 0.191284 0.856271
vt 0.193917 0.835055
vt 0.002637 0.644117
vt 0.000000 0.622870
vt 0.842330 0.212154
vt 0.811708 0.212154
vt 0.806443 0.190939
vt 0.842330 0.190939
vt 0.764276 0.859554
vt 0.764276 0.838339
vt 0.000000 0.012804
vt 0.001675 -0.000000
vt 0.022901 0.000113
vt 0.021559 0.012919
vt 0.418821 0.019427
vt 0.431571 0.020783
vt 0.418796 -0.000000
vt 0.431547 0.001656
vt 0.842330 0.171957
vt 0.869952 0.171981
vt 0.023051 0.215851
vt 0.021573 0.183833
vt 0.196367 0.183833
vt 0.194894 0.215851
vt 0.215809 0.001824
vt 0.247888 0.000012
vt 0.247913 0.019439
vt 0.215833 0.020923
vt 0.247913 0.194234
vt 0.215833 0.192767
vt 0.001856 0.215738
vt 0.000014 0.183718
vt 0.396534 0.615626
vt 0.396499 0.615330
vt 0.401740 0.615330
vt 0.400939 0.647385
vt 0.395604 0.647385
vt 0.396534 0.639485
vt 0.370988 0.639485
vt 0.371917 0.647385
vt 0.317797 0.647385
vt 0.317171 0.615330
vt 0.371022 0.615330
vt 0.370988 0.615626
vt 0.433303 0.647385
vt 0.432308 0.615330
vt 0.443798 0.615330
vt 0.444598 0.647385
vt 0.474550 0.615626
vt 0.474515 0.615330
vt 0.528367 0.615330
vt 0.527740 0.647385
vt 0.473620 0.647385
vt 0.474550 0.639485
vt 0.449933 0.647385
vt 0.449038 0.615330
vt 0.449003 0.615626
vt 0.449003 0.639485
vt 0.273385 0.615626
vt 0.273350 0.615330
vt 0.272455 0.647385
vt 0.273385 0.639485
vt 0.248768 0.647385
vt 0.218146 0.647385
vt 0.215809 0.615330
vt 0.247873 0.615330
vt 0.247838 0.615626
vt 0.247838 0.639485
vt 0.423135 0.647385
vt 0.422769 0.615330
vt 0.413229 0.615330
vt 0.412235 0.647385
vt 0.422769 0.615330
vt 0.422402 0.647385
vt 0.215809 0.183718
vt 0.214008 0.215738
vt 0.597700 0.615626
vt 0.597665 0.615330
vt 0.629729 0.615330
vt 0.627391 0.647385
vt 0.596770 0.647385
vt 0.597700 0.639485
vt 0.572153 0.639485
vt 0.573083 0.647385
vt 0.572188 0.615330
vt 0.572153 0.615626
vt 0.247888 0.215808
vt 0.215809 0.213977
vt 0.394004 0.594116
vt 0.389446 0.579231
vt 0.383761 0.573919
vt 0.378076 0.579231
vt 0.373517 0.594116
vt 0.472020 0.594117
vt 0.467461 0.579231
vt 0.461777 0.573919
vt 0.456092 0.579231
vt 0.451533 0.594117
vt 0.250368 0.594116
vt 0.270855 0.594116
vt 0.266296 0.579231
vt 0.260611 0.573919
vt 0.254927 0.579231
vt 0.595170 0.594117
vt 0.590611 0.579231
vt 0.584926 0.573919
vt 0.579242 0.579231
vt 0.574683 0.594117
vt 0.193917 0.644117
vt 0.199602 0.644117
vt 0.199602 0.859913
vt 0.193917 0.859913
vt 0.869298 0.215821
vt 0.869298 0.431617
vt 0.854371 0.431608
vt 0.854371 0.215812
vt 0.833135 0.431604
vt 0.832838 0.431587
vt 0.832838 0.215824
vt 0.833135 0.215808
vt 0.808964 0.430225
vt 0.808964 0.217173
vt 0.801067 0.429776
vt 0.801067 0.408560
vt 0.801067 0.236716
vt 0.801067 0.217622
vt 0.877222 0.430269
vt 0.869298 0.429819
vt 0.869298 0.410726
vt 0.869298 0.238882
vt 0.869298 0.217667
vt 0.877222 0.217219
vt 0.901092 0.431616
vt 0.901092 0.215854
vt 0.922544 0.215826
vt 0.922544 0.431621
vt 0.901388 0.431632
vt 0.901388 0.215837
vt 0.937328 0.431602
vt 0.937328 0.215808
vt 0.205286 0.644117
vt 0.205286 0.859913
vt 0.924806 0.000000
vt 0.930491 0.000000
vt 0.930491 0.215796
vt 0.924806 0.215796
vt 0.931970 0.647414
vt 0.931970 0.863210
vt 0.917043 0.863201
vt 0.917043 0.647405
vt 0.895807 0.863196
vt 0.895510 0.863179
vt 0.895510 0.647417
vt 0.895807 0.647400
vt 0.871636 0.648766
vt 0.871636 0.861817
vt 0.863738 0.861368
vt 0.863738 0.840153
vt 0.863738 0.668308
vt 0.863738 0.649215
vt 0.931970 0.861412
vt 0.931970 0.842318
vt 0.931970 0.670475
vt 0.931970 0.649259
vt 0.939894 0.648811
vt 0.939894 0.861861
vt 0.963764 0.863208
vt 0.963764 0.647447
vt 0.985215 0.863213
vt 0.964059 0.863225
vt 0.964059 0.647430
vt 0.985215 0.647419
vt 1.000000 0.863195
vt 1.000000 0.647400
vt 0.936175 0.000000
vt 0.936175 0.215796
s 0
f 86/1/1 34/2/1 4/3/1 76/4/1
f 82/5/2 20/6/2 8/7/2 77/8/2
f 88/9/3 48/10/3 6/11/3 78/12/3
f 79/13/4 18/14/4 2/15/4 75/16/4
f 5/17/5 91/18/5 90/19/5 60/20/5
f 14/21/5 52/22/5 89/23/5 92/24/5
f 49/25/6 59/26/6 2/27/6 18/28/6
f 29/29/7 16/30/7 21/31/7 31/32/7
f 47/33/5 50/34/5 11/35/5 1/36/5
f 84/37/4 26/38/4 18/14/4 79/13/4
f 76/39/2 4/40/2 19/41/2 80/42/2
f 78/43/4 6/44/4 17/45/4 81/46/4
f 48/47/6 51/48/6 17/49/6 6/50/6
f 120/51/5 52/22/5 14/21/5 121/52/5
f 28/53/5 58/54/5 119/55/5 122/56/5
f 83/57/2 27/58/2 20/6/2 82/5/2
f 29/59/6 12/60/6 18/28/6 26/61/6
f 41/62/6 10/63/6 19/64/6 37/65/6
f 30/66/6 13/67/6 20/68/6 27/69/6
f 54/70/6 16/71/6 17/49/6 51/48/6
f 57/72/8 55/73/8 22/74/8 31/75/8
f 42/76/9 13/77/9 24/78/9 44/79/9
f 53/80/10 12/81/10 22/74/10 55/73/10
f 30/82/11 10/83/11 23/84/11 32/85/11
f 13/86/11 30/82/11 32/85/11 24/87/11
f 56/88/6 57/89/6 31/90/6 21/91/6
f 10/63/6 30/66/6 27/69/6 19/64/6
f 16/71/6 29/59/6 26/61/6 17/49/6
f 80/42/2 19/41/2 27/58/2 83/57/2
f 50/34/5 58/54/5 28/53/5 11/35/5
f 81/46/4 17/45/4 26/38/4 84/37/4
f 12/92/7 29/29/7 31/32/7 22/93/7
f 9/94/5 25/95/5 46/96/5 38/97/5
f 24/98/6 32/99/6 45/100/6 44/101/6
f 10/102/10 41/103/10 43/104/10 23/105/10
f 54/106/9 42/76/9 44/79/9 56/107/9
f 32/108/8 23/105/8 43/104/8 45/109/8
f 13/67/6 42/110/6 39/111/6 20/68/6
f 53/112/6 41/62/6 37/65/6 49/25/6
f 124/113/5 15/114/5 40/115/5 125/116/5
f 46/96/5 25/95/5 123/117/5 126/118/5
f 8/119/6 20/68/6 39/111/6 36/120/6
f 3/121/5 9/94/5 38/97/5 33/122/5
f 19/64/6 4/123/6 34/124/6 37/65/6
f 94/125/5 7/126/5 35/127/5 95/128/5
f 40/115/5 15/114/5 93/129/5 96/130/5
f 77/131/12 8/132/12 36/133/12 85/134/12
f 87/135/13 59/136/13 34/2/13 86/1/13
f 75/137/14 2/138/14 59/136/14 87/135/14
f 12/60/6 53/112/6 49/25/6 18/28/6
f 16/139/9 54/106/9 56/107/9 21/140/9
f 38/97/5 46/96/5 58/54/5 50/34/5
f 44/101/6 45/100/6 57/89/6 56/88/6
f 41/103/10 53/80/10 55/73/10 43/104/10
f 45/109/8 43/104/8 55/73/8 57/72/8
f 42/110/6 54/70/6 51/48/6 39/111/6
f 125/116/5 40/115/5 52/22/5 120/51/5
f 119/55/5 58/54/5 46/96/5 126/118/5
f 36/120/6 39/111/6 51/48/6 48/47/6
f 33/122/5 38/97/5 50/34/5 47/33/5
f 37/65/6 34/124/6 59/26/6 49/25/6
f 95/128/5 35/127/5 60/20/5 90/19/5
f 89/23/5 52/22/5 40/115/5 96/130/5
f 85/134/15 36/133/15 48/10/15 88/9/15
f 35/141/16 71/142/16 74/143/16 60/144/16
f 1/145/17 61/146/17 73/147/17 47/148/17
f 47/148/18 73/147/18 72/149/18 33/150/18
f 7/151/19 63/152/19 71/142/19 35/141/19
f 128/153/20 127/154/20 70/155/20 28/156/20 122/157/20 131/158/20
f 132/159/20 121/160/20 14/161/20 67/162/20 130/163/20 129/164/20
f 9/165/21 66/166/21 69/167/21 25/168/21
f 136/169/21 137/170/21 68/171/21 15/172/21 124/173/21 138/174/21
f 123/175/21 25/168/21 69/167/21 135/176/21 134/177/21 133/178/21
f 97/179/20 98/180/20 67/162/20 14/161/20 92/181/20 101/182/20
f 91/183/20 5/184/20 64/185/20 100/186/20 99/187/20 102/188/20
f 3/189/21 62/190/21 66/166/21 9/165/21
f 28/156/20 70/155/20 65/191/20 11/192/20
f 11/192/20 65/191/20 61/193/20 1/194/20
f 60/144/22 74/143/22 64/195/22 5/196/22
f 105/197/21 106/198/21 63/199/21 7/200/21 94/201/21 108/202/21
f 107/203/21 93/204/21 15/172/21 68/171/21 104/205/21 103/206/21
f 33/150/23 72/149/23 62/207/23 3/208/23
f 71/142/24 85/134/24 88/9/24 74/143/24
f 61/146/25 75/137/25 87/135/25 73/147/25
f 73/147/26 87/135/26 86/1/26 72/149/26
f 63/152/27 77/131/27 85/134/27 71/142/27
f 130/163/7 67/162/7 81/46/7 84/37/7 70/155/7 127/154/7 139/209/7 140/210/7 143/211/7 142/212/7 141/213/7
f 66/166/11 80/42/11 83/57/11 69/167/11
f 69/167/11 83/57/11 82/5/11 68/171/11 137/170/11 147/214/11 148/215/11 146/216/11 145/217/11 144/218/11 135/176/11
f 111/219/7 100/186/7 64/185/7 78/43/7 81/46/7 67/162/7 98/180/7 109/220/7 110/221/7 113/222/7 112/223/7
f 62/190/11 76/39/11 80/42/11 66/166/11
f 70/155/7 84/37/7 79/13/7 65/191/7
f 65/191/7 79/13/7 75/16/7 61/193/7
f 74/143/28 88/9/28 78/12/28 64/195/28
f 104/205/11 68/171/11 82/5/11 77/8/11 63/199/11 106/198/11 116/224/11 117/225/11 118/226/11 115/227/11 114/228/11
f 72/149/29 86/1/29 76/4/29 62/207/29
f 112/229/30 113/230/30 118/231/30 117/232/30
f 112/233/31 117/234/31 116/235/31 111/236/31
f 116/235/32 106/237/32 105/238/32 99/239/32 100/240/32 111/236/32
f 99/239/10 105/238/10 108/241/10 102/242/10
f 108/241/33 94/243/33 95/244/33 90/245/33 91/246/33 102/242/33
f 101/247/34 92/248/34 89/249/34 96/250/34 93/251/34 107/252/34
f 97/253/24 101/247/24 107/252/24 103/254/24
f 114/255/35 109/256/35 98/257/35 97/253/35 103/254/35 104/258/35
f 110/259/36 109/256/36 114/255/36 115/260/36
f 113/230/37 110/261/37 115/262/37 118/231/37
f 142/263/30 143/264/30 146/265/30 148/266/30
f 142/267/31 148/268/31 147/269/31 141/270/31
f 137/271/32 136/272/32 129/273/32 130/274/32 141/270/32 147/269/32
f 132/275/10 129/273/10 136/272/10 138/276/10
f 124/277/33 125/278/33 120/279/33 121/280/33 132/275/33 138/276/33
f 122/281/34 119/282/34 126/283/34 123/284/34 133/285/34 131/286/34
f 128/287/24 131/286/24 133/285/24 134/288/24
f 139/289/35 127/290/35 128/287/35 134/288/35 135/291/35 144/292/35
f 140/293/36 139/289/36 144/292/36 145/294/36
f 143/264/37 140/295/37 145/296/37 146/265/37
o Cylinder
v -2.482224 -0.368606 -0.933828
v -2.482224 -0.368606 0.933828
v -2.288069 -0.412920 -0.933828
v -2.288069 -0.412920 0.933828
v -2.132368 -0.537087 -0.933828
v -2.132368 -0.537087 0.933828
v -2.045960 -0.716514 -0.933828
v -2.045960 -0.716514 0.933828
v -2.045960 -0.915663 -0.933828
v -2.045960 -0.915663 0.933828
v -2.132368 -1.095089 -0.933828
v -2.132368 -1.095089 0.933828
v -2.288069 -1.219257 -0.933828
v -2.288069 -1.219257 0.933828
v -2.482224 -1.263571 -0.933828
v -2.482224 -1.263571 0.933828
v -2.676379 -1.219257 -0.933828
v -2.676379 -1.219257 0.933828
v -2.832080 -1.095089 -0.933828
v -2.832080 -1.095089 0.933828
v -2.918488 -0.915663 -0.933828
v -2.918488 -0.915663 0.933828
v -2.918488 -0.716514 -0.933828
v -2.918488 -0.716514 0.933828
v -2.832080 -0.537087 -0.933828
v -2.832080 -0.537087 0.933828
v -2.676379 -0.412920 -0.933828
v -2.676379 -0.412920 0.933828
vn 0.2225 0.9749 -0.0000
vn 0.6235 0.7818 -0.0000
vn 0.9010 0.4339 -0.0000
vn 1.0000 -0.0000 -0.0000
vn 0.9010 -0.4339 -0.0000
vn 0.6235 -0.7818 -0.0000
vn 0.2225 -0.9749 -0.0000
vn -0.2225 -0.9749 -0.0000
vn -0.6235 -0.7818 -0.0000
vn -0.9010 -0.4339 -0.0000
vn -1.0000 -0.0000 -0.0000
vn -0.9010 0.4339 -0.0000
vn -0.0000 -0.0000 1.0000
vn -0.6235 0.7818 -0.0000
vn -0.2225 0.9749 -0.0000
vn -0.0000 -0.0000 -1.0000
vt 0.659668 0.647400
vt 0.659668 0.431604
vt 0.702932 0.431604
vt 0.702932 0.647400
vt 0.750951 0.431604
vt 0.750951 0.647400
vt 0.794215 0.431604
vt 0.794215 0.647400
vt 0.641957 0.215796
vt 0.641957 0.000000
vt 0.671896 0.000000
vt 0.671896 0.215796
vt 0.715160 0.000000
vt 0.715160 0.215796
vt 0.763179 0.000000
vt 0.763179 0.215796
vt 0.806443 0.000000
vt 0.806443 0.215796
vt 0.215809 0.863182
vt 0.215809 0.647385
vt 0.259072 0.647385
vt 0.259072 0.863182
vt 0.307092 0.647385
vt 0.307092 0.863182
vt 0.350355 0.647385
vt 0.350355 0.863182
vt 0.484902 0.863182
vt 0.484902 0.647385
vt 0.528166 0.647385
vt 0.528166 0.863182
vt 0.576185 0.647385
vt 0.576185 0.863182
vt 0.236643 0.390979
vt 0.215809 0.347715
vt 0.215809 0.299696
vt 0.236643 0.256432
vt 0.274186 0.226493
vt 0.321002 0.215808
vt 0.367817 0.226493
vt 0.405360 0.256432
vt 0.426194 0.299696
vt 0.426194 0.347715
vt 0.405360 0.390979
vt 0.367817 0.420919
vt 0.321002 0.431604
vt 0.274186 0.420919
vt 0.619449 0.647385
vt 0.619449 0.863182
vt 0.629729 0.647400
vt 0.629729 0.431604
vt -0.000000 0.347759
vt -0.000000 0.299740
vt 0.020835 0.256476
vt 0.058378 0.226537
vt 0.105193 0.215851
vt 0.152008 0.226537
vt 0.189551 0.256476
vt 0.210386 0.299740
vt 0.210386 0.347759
vt 0.189551 0.391023
vt 0.152008 0.420962
vt 0.105193 0.431648
vt 0.058378 0.420962
vt 0.020835 0.391023
s 0
f 149/297/38 150/298/38 152/299/38 151/300/38
f 151/300/39 152/299/39 154/301/39 153/302/39
f 153/302/40 154/301/40 156/303/40 155/304/40
f 155/305/41 156/306/41 158/307/41 157/308/41
f 157/308/42 158/307/42 160/309/42 159/310/42
f 159/310/43 160/309/43 162/311/43 161/312/43
f 161/312/44 162/311/44 164/313/44 163/314/44
f 163/315/45 164/316/45 166/317/45 165/318/45
f 165/318/46 166/317/46 168/319/46 167/320/46
f 167/320/47 168/319/47 170/321/47 169/322/47
f 169/323/48 170/324/48 172/325/48 171/326/48
f 171/326/49 172/325/49 174/327/49 173/328/49
f 152/329/50 150/330/50 176/331/50 174/332/50 172/333/50 170/334/50 168/335/50 166/336/50 164/337/50 162/338/50 160/339/50 158/340/50 156/341/50 154/342/50
f 173/328/51 174/327/51 176/343/51 175/344/51
f 175/345/52 176/346/52 150/298/52 149/297/52
f 149/347/53 151/348/53 153/349/53 155/350/53 157/351/53 159/352/53 161/353/53 163/354/53 165/355/53 167/356/53 169/357/53 171/358/53 173/359/53 175/360/53
o Cylinder.001
v 2.191183 -0.368606 -0.933828
v 2.191183 -0.368606 0.933828
v 2.385338 -0.412920 -0.933828
v 2.385338 -0.412920 0.933828
v 2.541039 -0.537087 -0.933828
v 2.541039 -0.537087 0.933828
v 2.627446 -0.716514 -0.933828
v 2.627446 -0.716514 0.933828
v 2.627446 -0.915663 -0.933828
v 2.627446 -0.915663 0.933828
v 2.541039 -1.095089 -0.933828
v 2.541039 -1.095089 0.933828
v 2.385338 -1.219257 -0.933828
v 2.385338 -1.219257 0.933828
v 2.191183 -1.263571 -0.933828
v 2.191183 -1.263571 0.933828
v 1.997027 -1.219257 -0.933828
v 1.997027 -1.219257 0.933828
v 1.841326 -1.095089 -0.933828
v 1.841326 -1.095089 0.933828
v 1.754919 -0.915663 -0.933828
v 1.754919 -0.915663 0.933828
v 1.754919 -0.716514 -0.933828
v 1.754919 -0.716514 0.933828
v 1.841326 -0.537087 -0.933828
v 1.841326 -0.537087 0.933828
v 1.997027 -0.412920 -0.933828
v 1.997027 -0.412920 0.933828
vn 0.2225 0.9749 -0.0000
vn 0.6235 0.7818 -0.0000
vn 0.9010 0.4339 -0.0000
vn 1.0000 -0.0000 -0.0000
vn 0.9010 -0.4339 -0.0000
vn 0.6235 -0.7818 -0.0000
vn 0.2225 -0.9749 -0.0000
vn -0.2225 -0.9749 -0.0000
vn -0.6235 -0.7818 -0.0000
vn -0.9010 -0.4339 -0.0000
vn -1.0000 -0.0000 -0.0000
vn -0.9010 0.4339 -0.0000
vn -0.0000 -0.0000 1.0000
vn -0.6235 0.7818 -0.0000
vn -0.2225 0.9749 -0.0000
vn -0.0000 -0.0000 -1.0000
vt 0.666520 0.431604
vt 0.666520 0.215808
vt 0.709784 0.215808
vt 0.709784 0.431604
vt 0.757803 0.215808
vt 0.757803 0.431604
vt 0.801067 0.215808
vt 0.801067 0.431604
vt 0.000000 0.859913
vt 0.000000 0.644117
vt 0.029939 0.644117
vt 0.029939 0.859913
vt 0.073203 0.644117
vt 0.073203 0.859913
vt 0.121222 0.644117
vt 0.121222 0.859913
vt 0.164486 0.644117
vt 0.164486 0.859913
vt 0.350355 0.863182
vt 0.350355 0.647385
vt 0.393619 0.647385
vt 0.393619 0.863182
vt 0.441638 0.647385
vt 0.441638 0.863182
vt 0.484902 0.647385
vt 0.484902 0.863182
vt 0.629729 0.863197
vt 0.629729 0.647400
vt 0.672993 0.647400
vt 0.672993 0.863197
vt 0.721012 0.647400
vt 0.721012 0.863197
vt 0.447029 0.390979
vt 0.426195 0.347715
vt 0.426195 0.299696
vt 0.447029 0.256432
vt 0.484572 0.226493
vt 0.531387 0.215808
vt 0.578203 0.226493
vt 0.615746 0.256432
vt 0.636580 0.299696
vt 0.636580 0.347715
vt 0.615746 0.390979
vt 0.578203 0.420919
vt 0.531387 0.431604
vt 0.484572 0.420919
vt 0.764276 0.647400
vt 0.764276 0.863197
vt 0.636580 0.431604
vt 0.636580 0.215808
vt 0.431571 0.131908
vt 0.431571 0.083889
vt 0.452406 0.040625
vt 0.489949 0.010685
vt 0.536764 -0.000000
vt 0.583579 0.010685
vt 0.621122 0.040625
vt 0.641957 0.083889
vt 0.641957 0.131908
vt 0.621122 0.175172
vt 0.583579 0.205111
vt 0.536764 0.215796
vt 0.489949 0.205111
vt 0.452406 0.175172
s 0
f 177/361/54 178/362/54 180/363/54 179/364/54
f 179/364/55 180/363/55 182/365/55 181/366/55
f 181/366/56 182/365/56 184/367/56 183/368/56
f 183/369/57 184/370/57 186/371/57 185/372/57
f 185/372/58 186/371/58 188/373/58 187/374/58
f 187/374/59 188/373/59 190/375/59 189/376/59
f 189/376/60 190/375/60 192/377/60 191/378/60
f 191/379/61 192/380/61 194/381/61 193/382/61
f 193/382/62 194/381/62 196/383/62 195/384/62
f 195/384/63 196/383/63 198/385/63 197/386/63
f 197/387/64 198/388/64 200/389/64 199/390/64
f 199/390/65 200/389/65 202/391/65 201/392/65
f 180/393/66 178/394/66 204/395/66 202/396/66 200/397/66 198/398/66 196/399/66 194/400/66 192/401/66 190/402/66 188/403/66 186/404/66 184/405/66 182/406/66
f 201/392/67 202/391/67 204/407/67 203/408/67
f 203/409/68 204/410/68 178/362/68 177/361/68
f 177/411/69 179/412/69 181/413/69 183/414/69 185/415/69 187/416/69 189/417/69 191/418/69 193/419/69 195/420/69 197/421/69 199/422/69 201/423/69 203/424/69
